<?xml version="1.0" encoding="UTF-8" ?>
<!DOCTYPE svg PUBLIC "-//W3C//DTD SVG 1.1//EN" "http://www.w3.org/Graphics/SVG/1.1/DTD/svg11.dtd">
<svg width="268pt" height="324pt" viewBox="0 0 268 324" version="1.1" xmlns="http://www.w3.org/2000/svg">
<g id="#6ab652ff">
<path fill="#6ab652" opacity="1.00" d=" M 105.09 0.60 C 124.17 8.80 142.95 17.72 161.95 26.11 C 163.81 26.91 165.66 27.78 167.32 28.97 C 163.83 29.10 160.52 27.53 157.00 27.96 C 148.64 28.39 140.15 27.12 131.91 28.84 C 126.74 29.32 121.67 30.53 116.62 31.63 C 109.39 34.12 101.79 36.02 95.34 40.26 C 92.87 41.37 90.76 43.33 88.12 43.98 C 87.59 44.07 86.53 44.25 86.00 44.34 C 86.19 41.58 87.61 39.17 88.71 36.71 C 94.21 24.69 99.57 12.60 105.09 0.60 Z" />
<path fill="#6ab652" opacity="1.00" d=" M 234.28 65.67 C 239.42 66.91 244.40 68.69 249.50 70.05 C 246.68 81.46 242.63 92.54 239.61 103.90 C 231.43 100.43 223.06 97.42 214.79 94.18 C 217.67 88.84 222.30 84.72 225.89 79.86 C 229.15 75.37 234.02 71.66 234.28 65.67 Z" />
</g>
<g id="#3e3e3eff">
<path fill="#3e3e3e" opacity="1.00" d=" M 86.84 52.81 C 103.25 39.86 124.24 33.59 144.97 33.16 C 175.90 32.00 207.10 44.18 229.06 65.98 C 219.72 78.12 209.91 89.91 200.27 101.81 C 189.26 93.17 176.76 85.76 162.83 83.18 C 152.01 81.34 140.45 80.92 130.11 85.16 C 124.12 87.66 118.65 92.60 117.25 99.15 C 116.21 104.03 116.30 109.56 119.24 113.79 C 123.06 119.48 129.35 122.72 135.32 125.69 C 154.12 134.15 173.45 141.35 192.38 149.50 C 208.72 156.92 224.08 168.92 231.18 185.85 C 236.72 199.73 237.72 215.28 234.89 229.90 C 230.97 249.52 218.13 266.80 201.07 277.07 C 177.91 291.54 149.34 294.78 122.68 291.24 C 102.45 288.04 82.55 281.11 65.59 269.46 C 59.85 265.63 54.65 261.06 49.33 256.69 C 59.90 243.81 70.51 230.92 81.32 218.23 C 83.96 218.54 85.82 221.47 88.11 222.86 C 104.86 235.03 124.88 244.54 146.02 243.77 C 155.23 243.59 165.40 241.98 172.18 235.18 C 180.48 227.48 180.75 212.45 172.08 204.92 C 166.56 199.96 159.53 197.21 152.85 194.21 C 137.29 187.29 121.46 181.00 105.86 174.18 C 89.84 166.76 75.00 155.24 66.80 139.28 C 59.85 126.08 58.18 110.62 60.42 95.99 C 63.38 78.92 73.20 63.39 86.84 52.81 Z" />
</g>
<g id="#c67227ff">
<path fill="#c67227" opacity="1.00" d=" M 31.78 62.19 C 49.89 56.37 68.00 50.48 86.00 44.34 C 86.53 44.25 87.59 44.07 88.12 43.98 C 79.40 50.87 70.78 58.31 65.06 68.01 C 56.90 80.24 54.23 95.28 53.84 109.72 C 52.62 112.14 51.06 114.35 49.69 116.68 C 48.76 114.79 47.98 112.83 47.35 110.82 C 42.59 95.91 37.62 81.06 32.74 66.19 C 32.30 64.89 32.05 63.53 31.78 62.19 Z" />
</g>
<g id="#4185a7ff">
<path fill="#4185a7" opacity="1.00" d=" M 210.67 98.68 C 212.12 97.35 212.86 94.59 214.79 94.18 C 223.06 97.42 231.43 100.43 239.61 103.90 C 245.24 106.35 251.22 107.99 256.70 110.78 C 251.83 122.70 247.71 134.93 242.66 146.76 C 237.67 154.79 234.66 163.77 231.13 172.48 C 223.28 163.11 214.58 153.94 203.40 148.56 C 197.79 144.47 190.82 143.16 184.84 139.80 C 190.53 128.59 196.21 117.38 202.14 106.30 C 206.50 106.02 207.99 101.38 210.67 98.68 Z" />
</g>
<g id="#dd3a2eff">
<path fill="#dd3a2e" opacity="1.00" d=" M 49.69 116.68 C 51.06 114.35 52.62 112.14 53.84 109.72 C 54.65 118.87 55.60 128.19 59.27 136.73 C 67.27 157.93 86.53 172.76 106.97 181.08 C 98.34 191.07 89.76 201.10 81.19 211.14 C 79.66 213.06 76.96 213.55 75.57 215.59 C 67.40 225.41 58.98 235.04 51.18 245.16 C 42.15 240.78 32.61 237.57 23.39 233.60 C 19.35 231.82 15.23 230.24 11.11 228.67 C 7.33 227.23 3.96 224.98 0.51 222.92 C 14.84 191.59 29.73 160.52 44.27 129.29 C 46.21 125.14 48.37 121.08 49.69 116.68 Z" />
</g>
<g id="#432c8cff">
<path fill="#432c8c" opacity="1.00" d=" M 231.13 172.48 C 234.66 163.77 237.67 154.79 242.66 146.76 C 250.54 184.52 259.26 222.11 267.02 259.89 C 261.26 260.80 255.66 262.91 249.81 263.06 C 249.94 261.48 250.10 259.87 249.82 258.30 C 249.03 257.14 247.45 257.13 246.24 256.71 C 241.56 255.68 236.81 254.95 232.11 254.03 C 236.04 246.32 239.13 238.15 240.62 229.60 C 241.44 221.71 243.13 213.67 241.28 205.77 C 240.35 194.35 237.67 182.52 230.89 173.08 L 231.13 172.48 Z" />
</g>
<g id="#c02c5cff">
<path fill="#c02c5c" opacity="1.00" d=" M 11.11 228.67 C 15.23 230.24 19.35 231.82 23.39 233.60 C 32.61 237.57 42.15 240.78 51.18 245.16 C 49.37 247.05 47.55 248.95 46.13 251.16 C 44.26 253.32 45.10 256.39 44.99 258.99 C 44.73 260.70 46.16 261.72 47.20 262.81 C 50.92 266.50 55.65 269.04 59.20 272.90 C 41.81 271.34 24.43 269.69 7.05 268.06 C 7.71 259.05 8.79 250.08 9.54 241.08 C 10.00 236.94 10.03 232.72 11.11 228.67 Z" />
<path fill="#c02c5c" opacity="1.00" d=" M 88.44 288.14 C 101.60 292.35 114.98 296.83 128.93 297.10 C 131.81 297.75 134.74 298.03 137.68 298.24 C 141.58 299.16 145.48 300.14 149.45 300.75 C 143.49 308.47 136.95 315.71 130.82 323.29 C 128.91 322.20 127.18 320.84 125.53 319.40 C 113.26 308.87 100.58 298.81 88.44 288.14 Z" />
</g>
<g id="#6b2e86ff">
<path fill="#6b2e86" opacity="1.00" d=" M 232.11 254.03 C 236.81 254.95 241.56 255.68 246.24 256.71 C 247.45 257.13 249.03 257.14 249.82 258.30 C 250.10 259.87 249.94 261.48 249.81 263.06 C 245.64 281.04 243.11 299.38 239.16 317.42 C 209.23 311.98 179.40 306.05 149.45 300.75 C 145.48 300.14 141.58 299.16 137.68 298.24 C 143.51 297.49 149.49 298.78 155.23 297.26 C 169.22 296.44 183.06 292.84 195.67 286.68 C 210.70 279.78 223.75 268.32 232.11 254.03 Z" />
</g>
</svg>
